<?xml version="1.0" encoding="utf-8"?>
<svg version="1.1" xmlns:xlink="http://www.w3.org/1999/xlink" width="12px" height="12px" viewBox="825 357  12 12" xmlns="http://www.w3.org/2000/svg">
  <path d="M 831 357  C 834.36 357  837 359.64  837 363  C 837 366.36  834.36 369  831 369  C 827.64 369  825 366.36  825 363  C 825 359.64  827.64 357  831 357  Z " fill-rule="nonzero" fill="#ffffff" stroke="none" />
  <path d="M 831 357.5  C 834.08 357.5  836.5 359.92  836.5 363  C 836.5 366.08  834.08 368.5  831 368.5  C 827.92 368.5  825.5 366.08  825.5 363  C 825.5 359.92  827.92 357.5  831 357.5  Z " stroke-width="1" stroke="#797979" fill="none" />
  <path d="M 831 366  C 829.32 366  828 364.68  828 363  C 828 361.32  829.32 360  831 360  C 832.68 360  834 361.32  834 363  C 834 364.68  832.68 366  831 366  " fill-rule="nonzero" fill="#797979" stroke="none" />
</svg>