<?xml version="1.0" encoding="utf-8"?>
<svg version="1.1" xmlns:xlink="http://www.w3.org/1999/xlink" width="12px" height="12px" viewBox="825 428  12 12" xmlns="http://www.w3.org/2000/svg">
  <path d="M 831 428  C 834.36 428  837 430.64  837 434  C 837 437.36  834.36 440  831 440  C 827.64 440  825 437.36  825 434  C 825 430.64  827.64 428  831 428  Z " fill-rule="nonzero" fill="#ffffff" stroke="none" />
  <path d="M 831 428.5  C 834.08 428.5  836.5 430.92  836.5 434  C 836.5 437.08  834.08 439.5  831 439.5  C 827.92 439.5  825.5 437.08  825.5 434  C 825.5 430.92  827.92 428.5  831 428.5  Z " stroke-width="1" stroke="#797979" fill="none" />
  <path d="M 831 437  C 829.32 437  828 435.68  828 434  C 828 432.32  829.32 431  831 431  C 832.68 431  834 432.32  834 434  C 834 435.68  832.68 437  831 437  " fill-rule="nonzero" fill="#797979" stroke="none" />
</svg>